<svg xmlns="http://www.w3.org/2000/svg" width="1600" height="420" viewBox="0 0 1600 420" role="img" aria-label="Harness Router adaptive logo lockup">
  <style>
    :root { color-scheme: light dark; --hr-fg: #050505; --hr-bg: #ffffff; }
    @media (prefers-color-scheme: dark) { :root { --hr-fg: #ffffff; --hr-bg: #050505; } }
  </style>
  <rect x="76" y="76" width="268" height="268" fill="var(--hr-fg)"/>
  <g transform="translate(76 76) scale(0.26171875)">
    <path d="M575.25 575.64 C596.81 597.2 618.38 621.76 639.94 649.31 C643.29 653.39 644.97 656.98 644.97 660.09 C644.97 663.69 642.81 667.64 638.5 671.95 C620.29 690.16 604.24 704.66 590.34 715.44 C586.27 717.83 583.16 719.03 581 719.03 C578.12 719.03 575.13 716.88 572.02 712.56 C502.54 622.96 423.83 546.65 335.91 483.64 C360.34 460.4 377.95 443.99 388.73 434.41 C392.09 432.01 394.84 430.81 397 430.81 C398.68 430.81 402.15 432.49 407.42 435.84 C456.54 471.78 491.28 499.21 511.64 518.14 C566.03 471.18 622.81 413.32 681.98 344.56 L371.84 346 C317.94 346 272.3 347.8 234.92 351.39 C227.73 351.39 223.42 346.96 221.98 338.09 C217.43 311.98 214.44 285.74 213 259.39 C246.3 262.74 299.73 264.42 373.28 264.42 L675.16 264.42 C706.3 264.42 726.67 262.15 736.25 257.59 C740.32 255.2 743.8 254 746.67 254 C750.98 254 755.06 255.92 758.89 259.75 C779.02 277.72 796.74 297.36 812.08 318.69 C815.91 325.16 817.83 330.55 817.83 334.86 C817.83 341.09 814.59 346.24 808.12 350.31 C789.68 363.73 777.94 373.07 772.91 378.34 C707.26 450.94 641.38 516.7 575.25 575.64 Z" fill="var(--hr-bg)" fill-rule="nonzero" shape-rendering="geometricPrecision"/>
  </g>
  <text x="416" y="211" dominant-baseline="central" font-family="Arial, Helvetica, sans-serif" font-size="106" font-weight="800" letter-spacing="0" fill="var(--hr-fg)">Harness Router</text>
</svg>
